<svg xmlns="http://www.w3.org/2000/svg" width="17.516" height="18.683" viewBox="0 0 17.516 18.683">
  <g id="download_1_" data-name="download (1)" transform="translate(-16)">
    <g id="Group_121" data-name="Group 121" transform="translate(20.087)">
      <g id="Group_120" data-name="Group 120" transform="translate(0)">
        <path id="Path_82" data-name="Path 82" d="M137.287,8.516a.582.582,0,0,0-.531-.342h-2.335V.584A.584.584,0,0,0,133.837,0H131.5a.584.584,0,0,0-.584.584v7.59h-2.335a.584.584,0,0,0-.439.968l4.087,4.671a.583.583,0,0,0,.878,0l4.087-4.671A.582.582,0,0,0,137.287,8.516Z" transform="translate(-127.998)" fill="#44677b"/>
      </g>
    </g>
    <g id="Group_123" data-name="Group 123" transform="translate(16 12.845)">
      <g id="Group_122" data-name="Group 122" transform="translate(0)">
        <path id="Path_83" data-name="Path 83" d="M31.18,352v3.5H18.335V352H16v4.671a1.167,1.167,0,0,0,1.168,1.168h15.18a1.167,1.167,0,0,0,1.168-1.168V352Z" transform="translate(-16 -352)" fill="#44677b"/>
      </g>
    </g>
  </g>
</svg>
