<svg xmlns="http://www.w3.org/2000/svg" width="19.624" height="16.174" viewBox="0 0 19.624 16.174">
  <path id="inventory" d="M18.645,14.217h-.677V8.181A1.069,1.069,0,0,0,16.9,7.113H13.8v-2.2a.29.29,0,1,0-.579,0v2.2h-2.61a1.064,1.064,0,0,0-.778.338,1.064,1.064,0,0,0-.778-.338H5.945V1.068A.488.488,0,0,1,6.433.58H7.746V1.642A.66.66,0,0,0,8.4,2.3h2.256a.66.66,0,0,0,.658-.66V.58h1.409a.488.488,0,0,1,.488.488V3.55a.29.29,0,1,0,.579,0V1.068A1.069,1.069,0,0,0,12.728,0H6.433A1.069,1.069,0,0,0,5.366,1.068V7.113H2.756A1.069,1.069,0,0,0,1.689,8.181v6.036H.977a.978.978,0,0,0,0,1.957H18.645a.978.978,0,0,0,0-1.957ZM10.739,1.642a.08.08,0,0,1-.079.08H8.4a.081.081,0,0,1-.08-.08V.58h2.414ZM12.5,7.693h2.414V8.755a.08.08,0,0,1-.079.079H12.578a.08.08,0,0,1-.08-.079Zm-1.892,0h1.312V8.755a.66.66,0,0,0,.659.659h2.255a.66.66,0,0,0,.659-.659V7.693H16.9a.488.488,0,0,1,.488.488v6.036H10.118V8.181A.488.488,0,0,1,10.606,7.693Zm-5.957,0H7.062V8.755a.08.08,0,0,1-.079.079H4.728a.079.079,0,0,1-.079-.079Zm14,7.9H.977a.4.4,0,0,1,0-.8H5.056a.29.29,0,0,0,0-.58H2.268V8.181a.488.488,0,0,1,.488-.488H4.07V8.755a.659.659,0,0,0,.658.659H6.984a.659.659,0,0,0,.658-.659V7.693H9.051a.488.488,0,0,1,.488.488v6.036H6.383a.29.29,0,0,0,0,.58H18.645a.4.4,0,1,1,0,.8Zm0,0" fill="#44677b"/>
</svg>
