<svg xmlns="http://www.w3.org/2000/svg" width="19.5" height="21.706" viewBox="0 0 19.5 21.706">
  <g id="Area" transform="translate(0.75 0.777)">
    <path id="reasonstudios" d="M2.936,4.293,9.9.272A2.032,2.032,0,0,1,11.911.258l.025.015L18.9,4.294A2.032,2.032,0,0,1,19.92,6.028V14.1a2.032,2.032,0,0,1-.994,1.746l-.023.013-6.967,4.021a2.032,2.032,0,0,1-2.008.015L9.9,19.878,2.936,15.857A2.032,2.032,0,0,1,1.92,14.123V6.053a2.031,2.031,0,0,1,.994-1.746l.022-.013L9.9.272,2.936,4.293ZM10.92,3.38,5.12,6.727v6.695l5.8,3.347V10.074l5.8-3.348Z" transform="translate(-1.92 0)" fill="none" stroke="#41a6f7" stroke-width="1.5"/>
  </g>
</svg>
