<svg xmlns="http://www.w3.org/2000/svg" width="17.678" height="12.627" viewBox="0 0 17.678 12.627">
  <g id="Group_6783" data-name="Group 6783" transform="translate(-8 -972.362)">
    <path id="Path_3886" data-name="Path 3886" d="M9.894,972.362A1.9,1.9,0,0,0,8,974.256V983.1a1.9,1.9,0,0,0,1.894,1.894h13.89a1.9,1.9,0,0,0,1.894-1.894v-8.839a1.9,1.9,0,0,0-1.894-1.894ZM10,973.625H23.672l-6.406,5.912a.557.557,0,0,1-.868,0Zm-.737,1.032,6.274,5.807a1.924,1.924,0,0,0,2.591,0l6.287-5.807V983.1a.617.617,0,0,1-.631.631H9.894a.617.617,0,0,1-.631-.631v-8.438Z" transform="translate(0 0)" fill="#41a6f7"/>
  </g>
</svg>
