<svg xmlns="http://www.w3.org/2000/svg" width="12" height="11" viewBox="0 0 12 11">
  <g id="Group_6146" data-name="Group 6146" transform="translate(-1.353 -9.125)">
    <g id="Group_1797" data-name="Group 1797" transform="translate(1.353 9.125)">
      <path id="Path_3854" data-name="Path 3854" d="M4,16.706H5.478v5.152h8.375V16.706H15.33L9.665,11.5Z" transform="translate(-3.652 -11.187)" fill="#56616c"/>
      <g id="Group_1796" data-name="Group 1796" transform="translate(0 0)">
        <path id="Path_3855" data-name="Path 3855" d="M1.68,14.979H3.151l-.309-.336v5.146a.32.32,0,0,0,.309.336h8.417a.32.32,0,0,0,.309-.336V14.643l-.309.336h1.471a.349.349,0,0,0,.222-.578q-2.837-2.6-5.686-5.186a.3.3,0,0,0-.433,0q-2.837,2.6-5.686,5.186a.32.32,0,0,0,.433.47q2.837-2.6,5.686-5.186H7.144q2.837,2.6,5.686,5.186c.074-.188.148-.376.222-.578H11.581a.32.32,0,0,0-.309.336v5.146l.309-.336H3.164l.309.336V14.63a.32.32,0,0,0-.309-.336H1.693C1.285,14.308,1.285,14.979,1.68,14.979Z" transform="translate(-1.353 -9.125)" fill="#56616c"/>
      </g>
    </g>
  </g>
</svg>
