<svg id="noun_Phone_1694967" xmlns="http://www.w3.org/2000/svg" width="17.81" height="17.811" viewBox="0 0 17.81 17.811">
  <g id="Group_1884" data-name="Group 1884">
    <g id="Group_1883" data-name="Group 1883" transform="translate(0)">
      <g id="Group_1882" data-name="Group 1882">
        <path id="Path_3892" data-name="Path 3892" d="M16.942,30.6a.65.65,0,0,1,0,.916L15.83,32.628a1.826,1.826,0,0,1-1.337.481c-1.579,0-3.921-1.265-6.067-3.411-2.9-2.9-4.185-6.149-2.93-7.4l1.112-1.112a.648.648,0,0,1,.916,0L9.9,23.56a.652.652,0,0,1,0,.92l-.791.791c-.207.207.053,1.269,1.265,2.477s2.271,1.472,2.477,1.265l.791-.791a.652.652,0,0,1,.92,0Z" transform="translate(-5.017 -15.298)" fill="#41a6f7"/>
        <path id="Path_3893" data-name="Path 3893" d="M27.262,28.127a.356.356,0,0,1-.713,0,4.215,4.215,0,0,0-4.21-4.21.356.356,0,1,1,0-.713A4.93,4.93,0,0,1,27.262,28.127Z" transform="translate(-15.936 -16.721)" fill="#41a6f7"/>
        <path id="Path_3894" data-name="Path 3894" d="M33.552,16.528a.356.356,0,1,1-.713,0,10.811,10.811,0,0,0-10.8-10.8.356.356,0,1,1,0-.713A11.526,11.526,0,0,1,33.552,16.528Z" transform="translate(-15.743 -5.015)" fill="#41a6f7"/>
        <path id="Path_3895" data-name="Path 3895" d="M30.314,22.316a.356.356,0,0,1-.713,0,7.649,7.649,0,0,0-7.642-7.638.356.356,0,0,1,0-.713A8.364,8.364,0,0,1,30.314,22.316Z" transform="translate(-15.691 -10.775)" fill="#41a6f7"/>
      </g>
    </g>
  </g>
</svg>
